<svg width="260" height="260" viewBox="0 0 260 260" fill="none" xmlns="http://www.w3.org/2000/svg">
<rect x="15" y="15" width="230" height="230" rx="40" fill="black"/>
<path d="M196.959 67.6843C196.926 65.9967 195.773 65.0423 194.492 64.5704L133.956 48.7648C132.532 48.4087 131.017 48 129.599 48C128.175 48 126.829 48.3055 125.619 48.8786L124.145 49.7318L66.219 83.3803C66.0272 83.5088 65.8418 83.6479 65.6564 83.7869C56.616 89.7472 55 96.1036 55 103.195V169.843C55 173.244 56.8077 176.223 59.5234 177.868L59.5866 177.908L117.864 211.529C118.496 211.913 119.244 212.134 120.036 212.134C122.35 212.134 124.227 210.261 124.227 207.958V140.552C124.227 137.318 122.586 134.469 120.093 132.782L118.791 132.042L71.5598 105.407C67.9255 103.261 67.599 99.0595 68.6861 96.5376C70.2515 92.9328 74.0902 92.2375 76.7595 92.8885L125.908 105.479C127.562 105.86 128.75 106.204 130.24 106.204C131.746 106.204 133.17 105.854 134.437 105.224L135.279 104.746L194.438 71.3839C195.514 70.6318 196.997 69.3592 196.959 67.6843ZM200.236 92.168L185.665 84.1514L174.001 90.9081C174.001 90.9081 187.378 98.2821 189.632 99.8095C192.36 101.655 191.286 104.369 189.484 105.382L142.221 132.044L140.938 132.765C140.932 132.771 140.924 132.778 140.917 132.784C138.419 134.471 136.786 137.318 136.786 140.554V207.956C136.786 210.261 138.657 212.132 140.968 212.132C141.691 212.132 142.373 211.947 142.967 211.624C143.024 211.597 143.083 211.565 143.14 211.527L201.397 177.917L201.479 177.868C204.188 176.225 206 173.246 206 169.843V103.197C206.004 97.3824 204.561 94.6014 200.236 92.168Z" fill="white"/>
</svg>
